<svg height="1214" width="720" xmlns="http://www.w3.org/2000/svg">
<rect height="1214" fill="#555" width="720"></rect>
<text fill="#7f7" font-family="Courier New" font-size="12" xml:space="preserve">
<tspan x="10" y="26">8 megabytes installed</tspan>
<tspan x="10" y="42"></tspan>
<tspan x="10" y="58">node_modules</tspan>
<tspan x="10" y="74">└─┬ gulp-amd-optimizer@0.6.0 </tspan>
<tspan x="10" y="90">  ├─┬ amd-optimizer@0.5.2 </tspan>
<tspan x="10" y="106">  │ ├── ast-traverse@0.1.1 </tspan>
<tspan x="10" y="122">  │ ├── lodash@3.10.1 </tspan>
<tspan x="10" y="138">  │ ├─┬ recast@0.10.43 </tspan>
<tspan x="10" y="154">  │ │ ├── ast-types@0.8.15 </tspan>
<tspan x="10" y="170">  │ │ ├── esprima-fb@15001.1001.0-dev-harmony-fb </tspan>
<tspan x="10" y="186">  │ │ ├── private@0.1.7 </tspan>
<tspan x="10" y="202">  │ │ └── source-map@0.5.6 </tspan>
<tspan x="10" y="218">  │ ├── requirejs@2.3.3 </tspan>
<tspan x="10" y="234">  │ ├─┬ strip-bom@2.0.0 </tspan>
<tspan x="10" y="250">  │ │ └── is-utf8@0.2.1 </tspan>
<tspan x="10" y="266">  │ ├── toposort@0.2.12 </tspan>
<tspan x="10" y="282">  │ └─┬ vinyl@1.0.0 </tspan>
<tspan x="10" y="298">  │   ├── clone@1.0.2 </tspan>
<tspan x="10" y="314">  │   └── clone-stats@0.0.1 </tspan>
<tspan x="10" y="330">  ├─┬ gulp-util@3.0.8 </tspan>
<tspan x="10" y="346">  │ ├── array-differ@1.0.0 </tspan>
<tspan x="10" y="362">  │ ├── array-uniq@1.0.3 </tspan>
<tspan x="10" y="378">  │ ├── beeper@1.1.1 </tspan>
<tspan x="10" y="394">  │ ├─┬ chalk@1.1.3 </tspan>
<tspan x="10" y="410">  │ │ ├── ansi-styles@2.2.1 </tspan>
<tspan x="10" y="426">  │ │ ├── escape-string-regexp@1.0.5 </tspan>
<tspan x="10" y="442">  │ │ ├─┬ has-ansi@2.0.0 </tspan>
<tspan x="10" y="458">  │ │ │ └── ansi-regex@2.1.1 </tspan>
<tspan x="10" y="474">  │ │ ├── strip-ansi@3.0.1 </tspan>
<tspan x="10" y="490">  │ │ └── supports-color@2.0.0 </tspan>
<tspan x="10" y="506">  │ ├── dateformat@2.0.0 </tspan>
<tspan x="10" y="522">  │ ├─┬ fancy-log@1.3.0 </tspan>
<tspan x="10" y="538">  │ │ └── time-stamp@1.0.1 </tspan>
<tspan x="10" y="554">  │ ├─┬ gulplog@1.0.0 </tspan>
<tspan x="10" y="570">  │ │ └── glogg@1.0.0 </tspan>
<tspan x="10" y="586">  │ ├─┬ has-gulplog@0.1.0 </tspan>
<tspan x="10" y="602">  │ │ └── sparkles@1.0.0 </tspan>
<tspan x="10" y="618">  │ ├── lodash._reescape@3.0.0 </tspan>
<tspan x="10" y="634">  │ ├── lodash._reevaluate@3.0.0 </tspan>
<tspan x="10" y="650">  │ ├── lodash._reinterpolate@3.0.0 </tspan>
<tspan x="10" y="666">  │ ├─┬ lodash.template@3.6.2 </tspan>
<tspan x="10" y="682">  │ │ ├── lodash._basecopy@3.0.1 </tspan>
<tspan x="10" y="698">  │ │ ├── lodash._basetostring@3.0.1 </tspan>
<tspan x="10" y="714">  │ │ ├── lodash._basevalues@3.0.0 </tspan>
<tspan x="10" y="730">  │ │ ├── lodash._isiterateecall@3.0.9 </tspan>
<tspan x="10" y="746">  │ │ ├─┬ lodash.escape@3.2.0 </tspan>
<tspan x="10" y="762">  │ │ │ └── lodash._root@3.0.1 </tspan>
<tspan x="10" y="778">  │ │ ├─┬ lodash.keys@3.1.2 </tspan>
<tspan x="10" y="794">  │ │ │ ├── lodash._getnative@3.9.1 </tspan>
<tspan x="10" y="810">  │ │ │ ├── lodash.isarguments@3.1.0 </tspan>
<tspan x="10" y="826">  │ │ │ └── lodash.isarray@3.0.4 </tspan>
<tspan x="10" y="842">  │ │ ├── lodash.restparam@3.6.1 </tspan>
<tspan x="10" y="858">  │ │ └── lodash.templatesettings@3.1.1 </tspan>
<tspan x="10" y="874">  │ ├── minimist@1.2.0 </tspan>
<tspan x="10" y="890">  │ ├─┬ multipipe@0.1.2 </tspan>
<tspan x="10" y="906">  │ │ └─┬ duplexer2@0.0.2 </tspan>
<tspan x="10" y="922">  │ │   └─┬ readable-stream@1.1.14 </tspan>
<tspan x="10" y="938">  │ │     ├── isarray@0.0.1 </tspan>
<tspan x="10" y="954">  │ │     └── string_decoder@0.10.31 </tspan>
<tspan x="10" y="970">  │ ├── object-assign@3.0.0 </tspan>
<tspan x="10" y="986">  │ ├── replace-ext@0.0.1 </tspan>
<tspan x="10" y="1002">  │ ├─┬ through2@2.0.3 </tspan>
<tspan x="10" y="1018">  │ │ ├─┬ readable-stream@2.2.9 </tspan>
<tspan x="10" y="1034">  │ │ │ ├── buffer-shims@1.0.0 </tspan>
<tspan x="10" y="1050">  │ │ │ ├── core-util-is@1.0.2 </tspan>
<tspan x="10" y="1066">  │ │ │ ├── inherits@2.0.3 </tspan>
<tspan x="10" y="1082">  │ │ │ ├── isarray@1.0.0 </tspan>
<tspan x="10" y="1098">  │ │ │ ├── process-nextick-args@1.0.7 </tspan>
<tspan x="10" y="1114">  │ │ │ ├── string_decoder@1.0.0 </tspan>
<tspan x="10" y="1130">  │ │ │ └── util-deprecate@1.0.2 </tspan>
<tspan x="10" y="1146">  │ │ └── xtend@4.0.1 </tspan>
<tspan x="10" y="1162">  │ └── vinyl@0.5.3 </tspan>
<tspan x="10" y="1178">  ├── slash@1.0.0 </tspan>
<tspan x="10" y="1194">  └── through@2.3.8</tspan>
</text>
</svg>
